{"title":"Gamer.2009.WORKPRINT.XviD.READNFO-IMAGiNE","uid":5146942,"size":1391163042,"categoryP":"video","categoryS":"movies","magnet":"?xt=urn:btih:f57bb1686180c85ed29092b36e4d87f718d75657&amp;dn=Gamer.2009.WORKPRINT.XviD.READNFO-IMAGiNE&amp;tr=udp%3A%2F%2Ftracker.openbittorrent.com%3A80&amp;tr=udp%3A%2F%2Fopen.demonii.com%3A1337&amp;tr=udp%3A%2F%2Ftracker.coppersurfer.tk%3A6969&amp;tr=udp%3A%2F%2Fexodus.desync.com%3A6969","seeders":0,"leechers":0,"uploader":"movieFOX","files":3,"time":1257319416,"description":"                ::::::::::: ::::    ::::      :::      :::::::: ::::::::::: ::::    ::: ::::::::::\n                    :+:     +:+:+: :+:+:+   :+: :+:   :+:    :+:    :+:     :+:+:   :+: :+:        \n                    +:+     +:+ +:+:+ +:+  +:+   +:+  +:+           +:+     :+:+:+  +:+ +:+        \n                    +#+     +#+  +:+  +#+ +#++:++#++: :#:           +#+     +#+ +:+ +#+ +#++:++#  \n                    +#+     +#+       +#+ +#+     +#+ +#+   +#+#    +#+     +#+  +#+#+# +#+        \n                    #+#     #+#       #+# #+#     #+# #+#    #+#    #+#     #+#   #+#+# #+#        \n                ########### ###       ### ###     ###  ######## ########### ###    #### ##########  \n                                             \n\n\n\n                         Another Fine Release Brought to you from - IMAGiNE                  \n                                           &lt;a href=&quot; http://imaginegroup.me/&quot; rel=&quot;nofollow&quot; target=&quot;_NEW&quot;&gt; http://imaginegroup.me/&lt;/a&gt;  \n \n********************************************************************************************************************                       Gamer.2009.WORKPRINT.XviD.AC3.READNFO - IMAGiNE\n********************************************************************************************************************\n\nRipper ...........: IMAGiNE                                      IMDB Rating.......:6.1/10                            \nVideo Codec.......:XVID                                          Release Date......:03/11/09\nAudio Codec.......:AC-3                                          Theatre Date......:04/09/09\nAudio Bitrate.....:224                                           Runtime...........:1h 30mn\nSubtitles.........:NIL                                           Language..........:ENGLISH\nResolution........: 672 x 384                                      \nIMDb URL..........:http://www.imdb.com/title/tt1034032/\n\n\nDETAILS:\nGeneral\nComplete name                    : Cocuments and SettingsGamer.2009.WORKPRINT.XviD.READNFO-IMAGiNE.avi\nFormat                           : AVI\nFormat/Info                      : Audio Video Interleave\nFile size                        : 1.24 GiB\nDuration                         : 1h 30mn\nOverall bit rate                 : 1 959 Kbps\nWriting library                  : VirtualDub build 32618/release\n\nVideo\nID                               : 0\nFormat                           : MPEG-4 Visual\nFormat profile                   : AdvancedSimple@L5\nFormat settings, BVOP            : Yes\nFormat settings, QPel            : No\nFormat settings, GMC             : No warppoints\nFormat settings, Matrix          : Default (MPEG)\nCodec ID                         : XVID\nCodec ID/Hint                    : XviD\nDuration                         : 1h 30mn\nBit rate                         : 1 726 Kbps\nWidth                            : 672 pixels\nHeight                           : 384 pixels\nDisplay aspect ratio             : 16:9\nFrame rate                       : 25.000 fps\nResolution                       : 24 bits\nColorimetry                      : 4:2:0\nScan type                        : Progressive\nBits/(Pixel*Frame)               : 0.268\nStream size                      : 1.09 GiB (88%)\nWriting library                  : XviD 1.2.1 (UTC 2008-12-04)\n\nAudio\nID                               : 1\nFormat                           : AC-3\nFormat/Info                      : Audio Coding 3\nCodec ID                         : 2000\nDuration                         : 1h 30mn\nBit rate mode                    : Constant\nBit rate                         : 224 Kbps\nChannel(s)                       : 2 channels\nChannel positions                : L R\nSampling rate                    : 48.0 KHz\nStream size                      : 146 MiB (11%)\nAlignment                        : Aligned on interleaves\nInterleave, duration             : 40 ms (1.00 video frame)\nInterleave, preload duration     : 512 ms\n\n\n\nNOTES:\n\nIMAGiNE bringing you another release.....\nThis time we bring you a workprint of Gamer 2009.....\nThis workprint source was from UCR so thanks for the files, not much was done to this source. Ran a few filters on it. Also left it with the original AC3 audio for the best audio. We have left the timers in this release, as some people seem to not like the blurring that get done with some releases. We are working on a blurred version as well.\nEnjoy...\nRemember that it is a WORKPRINT so its most possible that the movie might have some missing special effects or even scenes.\n &lt;a href=&quot;\nhttp://moviefox.org&quot; rel=&quot;nofollow&quot; target=&quot;_NEW&quot;&gt;\nhttp://moviefox.org&lt;/a&gt;\n\n\nSCREENS:\n &lt;a href=&quot;\nhttp://lookpic.com/i/456/o7zfRP4f.png&quot; rel=&quot;nofollow&quot; target=&quot;_NEW&quot;&gt;\nhttp://lookpic.com/i/456/o7zfRP4f.png&lt;/a&gt; &lt;a href=&quot;\nhttp://lookpic.com/i/780/iooJ2e8U.png&quot; rel=&quot;nofollow&quot; target=&quot;_NEW&quot;&gt;\nhttp://lookpic.com/i/780/iooJ2e8U.png&lt;/a&gt; &lt;a href=&quot;\nhttp://lookpic.com/i/241/lK5QQ9Cm.png&quot; rel=&quot;nofollow&quot; target=&quot;_NEW&quot;&gt;\nhttp://lookpic.com/i/241/lK5QQ9Cm.png&lt;/a&gt;","torrent":{"xt":"urn:btih:f57bb1686180c85ed29092b36e4d87f718d75657","amp;dn":"Gamer.2009.WORKPRINT.XviD.READNFO-IMAGiNE","amp;tr":["udp%3A%2F%2Ftracker.openbittorrent.com%3A80","udp%3A%2F%2Fopen.demonii.com%3A1337","udp%3A%2F%2Ftracker.coppersurfer.tk%3A6969","udp%3A%2F%2Fexodus.desync.com%3A6969"],"infoHash":"f57bb1686180c85ed29092b36e4d87f718d75657","infoHashBuffer":{"type":"Buffer","data":[245,123,177,104,97,128,200,94,210,144,146,179,110,77,135,247,24,215,86,87]},"announce":[],"urlList":[]}}